{
  "title": "Hitman Agent 47 {2015} NEW HQCAM X264 AC3-MRG",
  "uid": 12318879,
  "size": 632365004,
  "categoryP": "video",
  "categoryS": "movies",
  "magnet": "?xt=urn:btih:b460b001d70f7c7991f9ddfdf3dc071950886216&amp;dn=Hitman+Agent+47+%7B2015%7D+NEW+HQCAM+X264+AC3-MRG&amp;tr=udp%3A%2F%2Ftracker.openbittorrent.com%3A80&amp;tr=udp%3A%2F%2Fopen.demonii.com%3A1337&amp;tr=udp%3A%2F%2Ftracker.coppersurfer.tk%3A6969&amp;tr=udp%3A%2F%2Fexodus.desync.com%3A6969",
  "seeders": 110,
  "leechers": 54,
  "uploader": "SaM",
  "files": 14,
  "time": 1441030888,
  "description": "Hitman Agent 47 {2015} NEW HQCAM X264 AC3-MRG\n\n\nnfo: nice new vid ere thnx to yaske...TY....used only audio thts about\nfrm HaLO release ..as thts all there is about {4} now done best to tweak...\nallso included missing 3 min part which as\nlatin audio in case sum 1 as audio 4 tht bit....SHARE..:)\n\n\n\nFormat : Matroska\nFormat version : Version 4 / Version 2\nFile size : 582 MiB\nDuration : 1h 28mn\nOverall bit rate : 922 Kbps\n\nVideo\nID : 1\nFormat : AVC\nFormat/Info : Advanced Video Codec\nFormat profile : Baseline@L3\nFormat settings, CABAC : No\nFormat settings, ReFrames : 1 frame\nCodec ID : V_MPEG4/ISO/AVC\nDuration : 1h 28mn\nBit rate : 776 Kbps\nWidth : 716 pixels\nHeight : 360 pixels\nDisplay aspect ratio : 1.989\nFrame rate mode : Constant\nFrame rate : 23.976 fps\nColor space : YUV\nChroma subsampling : 4:2:0\nBit depth : 8 bits\nScan type : Progressive\nBits/(Pixel*Frame) : 0.126\nStream size : 489 MiB (84%)\nDefault : Yes\nForced : No\n\nAudio\nID : 2\nFormat : AC-3\nFormat/Info : Audio Coding 3\nMode extension : CM (complete main)\nFormat settings, Endianness : Big\nCodec ID : A_AC3\nDuration : 1h 28mn\nBit rate mode : Constant\nBit rate : 128 Kbps\nChannel(s) : 2 channels\nChannel positions : Front: L R\nSampling rate : 44.1 KHz\nCompression mode : Lossy\nDelay relative to video : 21ms\nStream size : 80.7 MiB (14%)\nDefault : Yes\nForced : No\n &lt;a href=&quot;\nhttp://extraimago.com/image/Ra5&quot; rel=&quot;nofollow&quot; target=&quot;_NEW&quot;&gt;\nhttp://extraimago.com/image/Ra5&lt;/a&gt; &lt;a href=&quot;\nhttp://extraimago.com/image/RaD&quot; rel=&quot;nofollow&quot; target=&quot;_NEW&quot;&gt;\nhttp://extraimago.com/image/RaD&lt;/a&gt; &lt;a href=&quot;\nhttp://extraimago.com/image/RaF&quot; rel=&quot;nofollow&quot; target=&quot;_NEW&quot;&gt;\nhttp://extraimago.com/image/RaF&lt;/a&gt; &lt;a href=&quot;\nhttp://extraimago.com/image/RaH&quot; rel=&quot;nofollow&quot; target=&quot;_NEW&quot;&gt;\nhttp://extraimago.com/image/RaH&lt;/a&gt; &lt;a href=&quot;\nhttp://extraimago.com/image/Rak&quot; rel=&quot;nofollow&quot; target=&quot;_NEW&quot;&gt;\nhttp://extraimago.com/image/Rak&lt;/a&gt; &lt;a href=&quot;\nhttp://extraimago.com/image/Rao&quot; rel=&quot;nofollow&quot; target=&quot;_NEW&quot;&gt;\nhttp://extraimago.com/image/Rao&lt;/a&gt; &lt;a href=&quot;\nhttp://extraimago.com/image/Rax&quot; rel=&quot;nofollow&quot; target=&quot;_NEW&quot;&gt;\nhttp://extraimago.com/image/Rax&lt;/a&gt; &lt;a href=&quot;\nhttp://extraimago.com/image/Rat&quot; rel=&quot;nofollow&quot; target=&quot;_NEW&quot;&gt;\nhttp://extraimago.com/image/Rat&lt;/a&gt; &lt;a href=&quot;\nhttp://extraimago.com/image/Ra6&quot; rel=&quot;nofollow&quot; target=&quot;_NEW&quot;&gt;\nhttp://extraimago.com/image/Ra6&lt;/a&gt; &lt;a href=&quot;\nhttp://extraimago.com/image/RaV&quot; rel=&quot;nofollow&quot; target=&quot;_NEW&quot;&gt;\nhttp://extraimago.com/image/RaV&lt;/a&gt;",
  "parsed": {
    "xt": "urn:btih:b460b001d70f7c7991f9ddfdf3dc071950886216",
    "dn": "Hitman Agent 47 {2015} NEW HQCAM X264 AC3-MRG",
    "tr": [
      "udp://exodus.desync.com:6969",
      "udp://open.demonii.com:1337",
      "udp://tracker.coppersurfer.tk:6969",
      "udp://tracker.openbittorrent.com:80"
    ],
    "infoHash": "b460b001d70f7c7991f9ddfdf3dc071950886216",
    "infoHashBuffer": {
      "type": "Buffer",
      "data": [
        180,
        96,
        176,
        1,
        215,
        15,
        124,
        121,
        145,
        249,
        221,
        253,
        243,
        220,
        7,
        25,
        80,
        136,
        98,
        22
      ]
    },
    "name": "Hitman Agent 47 {2015} NEW HQCAM X264 AC3-MRG",
    "announce": [
      "udp://exodus.desync.com:6969",
      "udp://open.demonii.com:1337",
      "udp://tracker.coppersurfer.tk:6969",
      "udp://tracker.openbittorrent.com:80"
    ],
    "urlList": []
  },
  "previous": 164,
  "peers": 7,
  "last_updated": "2016-12-25T11:38:01.683Z"
}